<svg xmlns="http://www.w3.org/2000/svg" xmlns:xlink="http://www.w3.org/1999/xlink" viewBox="0 0 24 24" width="24" height="24" preserveAspectRatio="xMidYMid meet" style="width: 100%; height: 100%; transform: translate3d(0px, 0px, 0px); content-visibility: visible;"><defs><clipPath id="__lottie_element_272"><rect width="24" height="24" x="0" y="0"></rect></clipPath><clipPath id="__lottie_element_274"><path d="M0,0 L600,0 L600,600 L0,600z"></path></clipPath><g id="__lottie_element_278"><g style="display: none;" transform="matrix(26.8125,0,0,26.8125,300,299.9907531738281)" opacity="1"><g opacity="1" transform="matrix(1,0,0,1,0,0)"><path fill="rgb(0,0,0)" fill-opacity="1" d=" M6,-4 C6,-4.264999866485596 5.894999980926514,-4.519000053405762 5.706999778747559,-4.706999778747559 C5.706999778747559,-4.706999778747559 2.7070000171661377,-7.706999778747559 2.7070000171661377,-7.706999778747559 C2.315999984741211,-8.097999572753906 1.684000015258789,-8.097999572753906 1.2929999828338623,-7.706999778747559 C0.9020000100135803,-7.315999984741211 0.9020000100135803,-6.684000015258789 1.2929999828338623,-6.293000221252441 C1.2929999828338623,-6.293000221252441 2.5859999656677246,-5 2.5859999656677246,-5 C2.5859999656677246,-5 1,-5 1,-5 C-2.313999891281128,-5 -5,-2.313999891281128 -5,1 C-5,1.5520000457763672 -4.552000045776367,2 -4,2 C-3.447999954223633,2 -3,1.5520000457763672 -3,1 C-3,-1.2089999914169312 -1.2089999914169312,-3 1,-3 C1,-3 2.5859999656677246,-3 2.5859999656677246,-3 C2.5859999656677246,-3 1.2929999828338623,-1.7070000171661377 1.2929999828338623,-1.7070000171661377 C0.9020000100135803,-1.315999984741211 0.9020000100135803,-0.6840000152587891 1.2929999828338623,-0.2930000126361847 C1.684000015258789,0.09799999743700027 2.315999984741211,0.09799999743700027 2.7070000171661377,-0.2930000126361847 C2.7070000171661377,-0.2930000126361847 5.706999778747559,-3.2929999828338623 5.706999778747559,-3.2929999828338623 C5.894999980926514,-3.4809999465942383 6,-3.734999895095825 6,-4z"></path></g></g></g><g id="__lottie_element_287"><g style="display: block;" transform="matrix(26.8125,0,0,26.8125,300,299.9907531738281)" opacity="1"><g opacity="1" transform="matrix(1,0,0,1,0,0)"><path fill="rgb(0,0,0)" fill-opacity="1" d=" M-3.7070000171661377,-6.706999778747559 C-3.315999984741211,-7.0980000495910645 -2.684000015258789,-7.0980000495910645 -2.2929999828338623,-6.706999778747559 C-2.2929999828338623,-6.706999778747559 0,-4.414000034332275 0,-4.414000034332275 C0,-4.414000034332275 2.2929999828338623,-6.706999778747559 2.2929999828338623,-6.706999778747559 C2.684000015258789,-7.0980000495910645 3.315999984741211,-7.0980000495910645 3.7070000171661377,-6.706999778747559 C4.0980000495910645,-6.315999984741211 4.0980000495910645,-5.684000015258789 3.7070000171661377,-5.293000221252441 C3.7070000171661377,-5.293000221252441 1.4140000343322754,-3 1.4140000343322754,-3 C1.4140000343322754,-3 3.7070000171661377,-0.7070000171661377 3.7070000171661377,-0.7070000171661377 C4.0980000495910645,-0.3160000145435333 4.0980000495910645,0.3160000145435333 3.7070000171661377,0.7070000171661377 C3.315999984741211,1.0980000495910645 2.684000015258789,1.0980000495910645 2.2929999828338623,0.7070000171661377 C2.2929999828338623,0.7070000171661377 0,-1.5859999656677246 0,-1.5859999656677246 C0,-1.5859999656677246 -2.2929999828338623,0.7070000171661377 -2.2929999828338623,0.7070000171661377 C-2.684000015258789,1.0980000495910645 -3.315999984741211,1.0980000495910645 -3.7070000171661377,0.7070000171661377 C-4.0980000495910645,0.3160000145435333 -4.0980000495910645,-0.3160000145435333 -3.7070000171661377,-0.7070000171661377 C-3.7070000171661377,-0.7070000171661377 -1.4140000343322754,-3 -1.4140000343322754,-3 C-1.4140000343322754,-3 -3.7070000171661377,-5.293000221252441 -3.7070000171661377,-5.293000221252441 C-4.0980000495910645,-5.684000015258789 -4.0980000495910645,-6.315999984741211 -3.7070000171661377,-6.706999778747559z"></path></g></g></g><g id="__lottie_element_296"><g style="display: none;" transform="matrix(26.8125,0,0,26.8125,298.20001220703125,300.0069885253906)" opacity="1"><g opacity="1" transform="matrix(1,0,0,1,0,0)"><path fill="rgb(78,80,88)" fill-opacity="1" d=" M-3.7070000171661377,-6.706999778747559 C-3.315999984741211,-7.0980000495910645 -2.684000015258789,-7.0980000495910645 -2.2929999828338623,-6.706999778747559 C-2.2929999828338623,-6.706999778747559 0,-4.414000034332275 0,-4.414000034332275 C0,-4.414000034332275 2.2929999828338623,-6.706999778747559 2.2929999828338623,-6.706999778747559 C2.684000015258789,-7.0980000495910645 3.315999984741211,-7.0980000495910645 3.7070000171661377,-6.706999778747559 C4.0980000495910645,-6.315999984741211 4.0980000495910645,-5.684000015258789 3.7070000171661377,-5.293000221252441 C3.7070000171661377,-5.293000221252441 1.4140000343322754,-3 1.4140000343322754,-3 C1.4140000343322754,-3 3.7070000171661377,-0.7070000171661377 3.7070000171661377,-0.7070000171661377 C4.0980000495910645,-0.3160000145435333 4.0980000495910645,0.3160000145435333 3.7070000171661377,0.7070000171661377 C3.315999984741211,1.0980000495910645 2.684000015258789,1.0980000495910645 2.2929999828338623,0.7070000171661377 C2.2929999828338623,0.7070000171661377 0,-1.5859999656677246 0,-1.5859999656677246 C0,-1.5859999656677246 -2.2929999828338623,0.7070000171661377 -2.2929999828338623,0.7070000171661377 C-2.684000015258789,1.0980000495910645 -3.315999984741211,1.0980000495910645 -3.7070000171661377,0.7070000171661377 C-4.0980000495910645,0.3160000145435333 -4.0980000495910645,-0.3160000145435333 -3.7070000171661377,-0.7070000171661377 C-3.7070000171661377,-0.7070000171661377 -1.4140000343322754,-3 -1.4140000343322754,-3 C-1.4140000343322754,-3 -3.7070000171661377,-5.293000221252441 -3.7070000171661377,-5.293000221252441 C-4.0980000495910645,-5.684000015258789 -4.0980000495910645,-6.315999984741211 -3.7070000171661377,-6.706999778747559z"></path></g></g></g><g id="__lottie_element_301"><g clip-path="url(#__lottie_element_305)" transform="matrix(0.9998572468757629,-0.022317802533507347,0.022317802533507347,0.9998572468757629,-11.952629089355469,6.788043975830078)" opacity="1" style="display: none;"><g transform="matrix(27,0,0,27,300,300)" opacity="1" style="display: block;"><g opacity="1" transform="matrix(1,0,0,1,0,0)"><path stroke-linecap="round" stroke-linejoin="miter" fill-opacity="0" stroke-miterlimit="10" stroke="rgb(88,101,242)" stroke-opacity="1" stroke-width="2" d=" M-3.003000020980835,-6.002999782562256 C-3.003000020980835,-6.002999782562256 1.8580000400543213,-1.1419999599456787 2.8340001106262207,-0.16599999368190765"></path></g><g opacity="1" transform="matrix(1,0,0,1,0,0)"><path stroke-linecap="round" stroke-linejoin="miter" fill-opacity="0" stroke-miterlimit="10" stroke="rgb(88,101,242)" stroke-opacity="1" stroke-width="2" d=" M-3.003000020980835,0.003000000026077032 C-3.003000020980835,0.003000000026077032 1.8580000400543213,-4.857999801635742 2.8340001106262207,-5.834000110626221"></path></g></g><g transform="matrix(27,0,0,27,300,300)" opacity="1" style="display: block;"><g opacity="1" transform="matrix(1,0,0,1,0,0)"><path stroke-linecap="round" stroke-linejoin="miter" fill-opacity="0" stroke-miterlimit="10" stroke="rgb(88,101,242)" stroke-opacity="1" stroke-width="2" d="M0 0"></path></g></g><g transform="matrix(27,0,0,27,300,300)" opacity="1" style="display: block;"><g opacity="1" transform="matrix(1,0,0,1,0,0)"><path stroke-linecap="round" stroke-linejoin="miter" fill-opacity="0" stroke-miterlimit="10" stroke="rgb(88,101,242)" stroke-opacity="1" stroke-width="2" d="M0 0"></path></g><g opacity="1" transform="matrix(1,0,0,1,0,0)"><path stroke-linecap="round" stroke-linejoin="miter" fill-opacity="0" stroke-miterlimit="10" stroke="rgb(88,101,242)" stroke-opacity="1" stroke-width="2" d="M0 0"></path></g></g></g></g><clipPath id="__lottie_element_305"><path d="M0,0 L600,0 L600,600 L0,600z"></path></clipPath><filter id="__lottie_element_320" filterUnits="objectBoundingBox" x="0%" y="0%" width="100%" height="100%"><feComponentTransfer in="SourceGraphic"><feFuncA type="table" tableValues="1.0 0.0"></feFuncA></feComponentTransfer></filter><mask id="__lottie_element_301_2" mask-type="alpha"><g filter="url(#__lottie_element_320)"><rect width="600" height="600" x="0" y="0" fill="#ffffff" opacity="0"></rect><use xlink:href="#__lottie_element_301"></use></g></mask><filter id="__lottie_element_321" filterUnits="objectBoundingBox" x="0%" y="0%" width="100%" height="100%"><feComponentTransfer in="SourceGraphic"><feFuncA type="table" tableValues="1.0 0.0"></feFuncA></feComponentTransfer></filter><mask id="__lottie_element_287_2" mask-type="alpha"><g filter="url(#__lottie_element_321)"><rect width="600" height="600" x="0" y="0" fill="#ffffff" opacity="0"></rect><use xlink:href="#__lottie_element_287"></use></g></mask><filter id="__lottie_element_322" filterUnits="objectBoundingBox" x="0%" y="0%" width="100%" height="100%"><feComponentTransfer in="SourceGraphic"><feFuncA type="table" tableValues="1.0 0.0"></feFuncA></feComponentTransfer></filter><mask id="__lottie_element_278_2" mask-type="alpha"><g filter="url(#__lottie_element_322)"><rect width="600" height="600" x="0" y="0" fill="#ffffff" opacity="0"></rect><use xlink:href="#__lottie_element_278"></use></g></mask></defs><g clip-path="url(#__lottie_element_272)"><g clip-path="url(#__lottie_element_274)" transform="matrix(0.03999999910593033,0,0,0.03999999910593033,0,0)" opacity="1" style="display: block;"><g transform="matrix(26.805822372436523,-0.5983324646949768,0.5983324646949768,26.805822372436523,294.7000732421875,300.0585632324219)" opacity="1" style="display: none;"><g opacity="1" transform="matrix(1,0,0,1,0,0)"><path fill="#060607" fill-opacity="1" d=" M1,7.5 C1,7.776000022888184 1.2239999771118164,8 1.5,8 C1.5,8 3,8 3,8 C3.552000045776367,8 4,8.447999954223633 4,9 C4,9.552000045776367 3.552000045776367,10 3,10 C3,10 -3,10 -3,10 C-3.552000045776367,10 -4,9.552000045776367 -4,9 C-4,8.447999954223633 -3.552000045776367,8 -3,8 C-3,8 -1.5,8 -1.5,8 C-1.2239999771118164,8 -1,7.776000022888184 -1,7.5 C-1,7.5 -1,5.5 -1,5.5 C-1,5.223999977111816 -0.7760000228881836,5 -0.5,5 C-0.5,5 0.5,5 0.5,5 C0.7760000228881836,5 1,5.223999977111816 1,5.5 C1,5.5 1,7.5 1,7.5z"></path></g></g><g mask="url(#__lottie_element_301_2)" style="display: none;"><g transform="matrix(26.805822372436523,-0.5983324646949768,0.5983324646949768,26.805822372436523,294.69989013671875,300.04986572265625)" opacity="1"><g opacity="1" transform="matrix(1,0,0,1,0,0)"><path fill="#060607" fill-opacity="1" d=" M-10,-7 C-10,-8.656999588012695 -8.656999588012695,-10 -7,-10 C-7,-10 7,-10 7,-10 C8.656999588012695,-10 10,-8.656999588012695 10,-7 C10,-7 10,1 10,1 C10,2.6570000648498535 8.656999588012695,4 7,4 C7,4 -7,4 -7,4 C-8.656999588012695,4 -10,2.6570000648498535 -10,1 C-10,1 -10,-7 -10,-7z"></path></g></g></g><g style="display: block;" transform="matrix(26.8125,0,0,26.8125,300,299.99945068359375)" opacity="1"><g opacity="1" transform="matrix(1,0,0,1,0,0)"><path fill="#060607" fill-opacity="1" d=" M1,7.5 C1,7.776000022888184 1.2239999771118164,8 1.5,8 C1.5,8 3,8 3,8 C3.552000045776367,8 4,8.447999954223633 4,9 C4,9.552000045776367 3.552000045776367,10 3,10 C3,10 -3,10 -3,10 C-3.552000045776367,10 -4,9.552000045776367 -4,9 C-4,8.447999954223633 -3.552000045776367,8 -3,8 C-3,8 -1.5,8 -1.5,8 C-1.2239999771118164,8 -1,7.776000022888184 -1,7.5 C-1,7.5 -1,5.5 -1,5.5 C-1,5.223999977111816 -0.7760000228881836,5 -0.5,5 C-0.5,5 0.5,5 0.5,5 C0.7760000228881836,5 1,5.223999977111816 1,5.5 C1,5.5 1,7.5 1,7.5z"></path></g></g><g mask="url(#__lottie_element_287_2)" style="display: block;"><g transform="matrix(26.8125,0,0,26.8125,300,299.9907531738281)" opacity="1"><g opacity="1" transform="matrix(1,0,0,1,0,0)"><path fill="#060607" fill-opacity="1" d=" M-10,-7 C-10,-8.656999588012695 -8.656999588012695,-10 -7,-10 C-7,-10 7,-10 7,-10 C8.656999588012695,-10 10,-8.656999588012695 10,-7 C10,-7 10,1 10,1 C10,2.6570000648498535 8.656999588012695,4 7,4 C7,4 -7,4 -7,4 C-8.656999588012695,4 -10,2.6570000648498535 -10,1 C-10,1 -10,-7 -10,-7z"></path></g></g></g><g style="display: none;" transform="matrix(26.8125,0,0,26.8125,300,299.99945068359375)" opacity="1"><g opacity="1" transform="matrix(1,0,0,1,0,0)"><path fill="#060607" fill-opacity="1" d=" M1,7.5 C1,7.776000022888184 1.2239999771118164,8 1.5,8 C1.5,8 3,8 3,8 C3.552000045776367,8 4,8.447999954223633 4,9 C4,9.552000045776367 3.552000045776367,10 3,10 C3,10 -3,10 -3,10 C-3.552000045776367,10 -4,9.552000045776367 -4,9 C-4,8.447999954223633 -3.552000045776367,8 -3,8 C-3,8 -1.5,8 -1.5,8 C-1.2239999771118164,8 -1,7.776000022888184 -1,7.5 C-1,7.5 -1,5.5 -1,5.5 C-1,5.223999977111816 -0.7760000228881836,5 -0.5,5 C-0.5,5 0.5,5 0.5,5 C0.7760000228881836,5 1,5.223999977111816 1,5.5 C1,5.5 1,7.5 1,7.5z"></path></g></g><g mask="url(#__lottie_element_278_2)" style="display: none;"><g transform="matrix(26.8125,0,0,26.8125,300,299.9907531738281)" opacity="1"><g opacity="1" transform="matrix(1,0,0,1,0,0)"><path fill="#060607" fill-opacity="1" d=" M-10,-7 C-10,-8.656999588012695 -8.656999588012695,-10 -7,-10 C-7,-10 7,-10 7,-10 C8.656999588012695,-10 10,-8.656999588012695 10,-7 C10,-7 10,1 10,1 C10,2.6570000648498535 8.656999588012695,4 7,4 C7,4 -7,4 -7,4 C-8.656999588012695,4 -10,2.6570000648498535 -10,1 C-10,1 -10,-7 -10,-7z"></path></g></g></g></g></g></svg>