<svg xmlns="http://www.w3.org/2000/svg" xmlns:xlink="http://www.w3.org/1999/xlink" viewBox="0 0 24 24" width="24" height="24" preserveAspectRatio="xMidYMid meet" style="width: 100%; height: 100%; transform: translate3d(0px, 0px, 0px); content-visibility: visible;"><defs><clipPath id="__lottie_element_728"><rect width="24" height="24" x="0" y="0"></rect></clipPath><clipPath id="__lottie_element_730"><path d="M0,0 L600,0 L600,600 L0,600z"></path></clipPath><clipPath id="__lottie_element_734"><path d="M0,0 L1000,0 L1000,1000 L0,1000z"></path></clipPath><clipPath id="__lottie_element_741"><path d="M0,0 L1000,0 L1000,1000 L0,1000z"></path></clipPath><clipPath id="__lottie_element_751"><path d="M0,0 L1000,0 L1000,1000 L0,1000z"></path></clipPath><mask id="__lottie_element_752"><rect fill="#ffffff" width="600" height="600" transform="matrix(1,0,0,1,200,200)"></rect><path fill="#000000" clip-rule="nonzero" d=" M1025.219970703125,-87.2040023803711 C1025.219970703125,-87.2040023803711 853.697021484375,87.75 853.697021484375,87.75 C853.697021484375,87.75 789.760009765625,155.23199462890625 839.1370239257812,204.86199951171875 C893,259 957.6799926757812,191.05599975585938 957.6799926757812,191.05599975585938 C957.6799926757812,191.05599975585938 1129.2030029296875,16.101999282836914 1129.2030029296875,16.101999282836914 C1129.2030029296875,16.101999282836914 1212,-66 1160.2149658203125,-115.55400085449219 C1108.781005859375,-164.77200317382812 1025.219970703125,-87.2040023803711 1025.219970703125,-87.2040023803711" fill-opacity="1"></path><path fill="#ffffff" clip-rule="nonzero" d=" M698,405 C698,405 642,405 642,405 C642,405 642,479 642,479 C642,479 698,479 698,479 C698,479 698,405 698,405" fill-opacity="1"></path></mask></defs><g clip-path="url(#__lottie_element_728)"><g clip-path="url(#__lottie_element_730)" transform="matrix(0.03999999910593033,0,0,0.03999999910593033,0,0)" opacity="1" style="display: block;"><g clip-path="url(#__lottie_element_751)" transform="matrix(1,0,0,1,-200,-200)" opacity="1" style="display: block;"><g mask="url(#__lottie_element_752)"><g style="display: none;" transform="matrix(-25,0,0,25,800,173)" opacity="1"><g opacity="1" transform="matrix(1,0,0,1,12,8.5)"><path fill="#060607" fill-opacity="1" d=" M-4,-1.4600000381469727 C-4,-3.6689999103546143 -2.2090001106262207,-5.460000038146973 0,-5.460000038146973 C2.2090001106262207,-5.460000038146973 4,-3.6689999103546143 4,-1.4600000381469727 C4,-1.4600000381469727 4,2.5 4,2.5 C4,4.709000110626221 2.2090001106262207,6.5 0,6.5 C-2.2090001106262207,6.5 -4,4.709000110626221 -4,2.5 C-4,2.5 -4,-1.4600000381469727 -4,-1.4600000381469727z"></path></g><g opacity="1" transform="matrix(1,0,0,1,12,14)"><path stroke-linecap="round" stroke-linejoin="miter" fill-opacity="0" stroke-miterlimit="4" stroke="#060607" stroke-opacity="1" stroke-width="2px" d=" M-7,-3 C-7,0.8659999966621399 -3.865999937057495,4 0,4 C3.865999937057495,4 7,0.8659999966621399 7,-3"></path></g><g opacity="1" transform="matrix(1,0,0,1,12,20)"><path fill="#060607" fill-opacity="1" d=" M-1,-2 C-1,-2.2760000228881836 -0.7760000228881836,-2.5 -0.5,-2.5 C-0.5,-2.5 0.5,-2.5 0.5,-2.5 C0.7760000228881836,-2.5 1,-2.2760000228881836 1,-2 C1,-2 1,2 1,2 C1,2.2760000228881836 0.7760000228881836,2.5 0.5,2.5 C0.5,2.5 -0.5,2.5 -0.5,2.5 C-0.7760000228881836,2.5 -1,2.2760000228881836 -1,2 C-1,2 -1,-2 -1,-2z"></path></g><g opacity="1" transform="matrix(1,0,0,1,12,22)"><path fill="#060607" fill-opacity="1" d=" M3,-1 C3.552000045776367,-1 4,-0.5519999861717224 4,0 C4,0.5519999861717224 3.552000045776367,1 3,1 C3,1 -3,1 -3,1 C-3.552000045776367,1 -4,0.5519999861717224 -4,0 C-4,-0.5519999861717224 -3.552000045776367,-1 -3,-1 C-3,-1 3,-1 3,-1z"></path></g></g><g transform="matrix(-25,0,0,25,800,173)" opacity="1" style="display: block;"><g opacity="1" transform="matrix(1,0,0,1,12,8.5)"><path fill="#060607" fill-opacity="1" d=" M-4,-1.4600000381469727 C-4,-3.6689999103546143 -2.2090001106262207,-5.460000038146973 0,-5.460000038146973 C2.2090001106262207,-5.460000038146973 4,-3.6689999103546143 4,-1.4600000381469727 C4,-1.4600000381469727 4,2.5 4,2.5 C4,4.709000110626221 2.2090001106262207,6.5 0,6.5 C-2.2090001106262207,6.5 -4,4.709000110626221 -4,2.5 C-4,2.5 -4,-1.4600000381469727 -4,-1.4600000381469727z"></path></g><g opacity="1" transform="matrix(1,0,0,1,12,14)"><path stroke-linecap="round" stroke-linejoin="miter" fill-opacity="0" stroke-miterlimit="4" stroke="#060607" stroke-opacity="1" stroke-width="2px" d=" M-7,-3 C-7,0.8659999966621399 -3.865999937057495,4 0,4 C3.865999937057495,4 7,0.8659999966621399 7,-3"></path></g><g opacity="1" transform="matrix(1,0,0,1,12,20)"><path fill="#060607" fill-opacity="1" d=" M-1,-2 C-1,-2.2760000228881836 -0.7760000228881836,-2.5 -0.5,-2.5 C-0.5,-2.5 0.5,-2.5 0.5,-2.5 C0.7760000228881836,-2.5 1,-2.2760000228881836 1,-2 C1,-2 1,2 1,2 C1,2.2760000228881836 0.7760000228881836,2.5 0.5,2.5 C0.5,2.5 -0.5,2.5 -0.5,2.5 C-0.7760000228881836,2.5 -1,2.2760000228881836 -1,2 C-1,2 -1,-2 -1,-2z"></path></g><g opacity="1" transform="matrix(1,0,0,1,12,22)"><path fill="#060607" fill-opacity="1" d=" M3,-1 C3.552000045776367,-1 4,-0.5519999861717224 4,0 C4,0.5519999861717224 3.552000045776367,1 3,1 C3,1 -3,1 -3,1 C-3.552000045776367,1 -4,0.5519999861717224 -4,0 C-4,-0.5519999861717224 -3.552000045776367,-1 -3,-1 C-3,-1 3,-1 3,-1z"></path></g></g></g></g><g clip-path="url(#__lottie_element_741)" transform="matrix(1,0,0,1,-200,-200)" opacity="1" style="display: none;"><g transform="matrix(25,0,0,25,200,200)" opacity="1" style="display: block;"><g opacity="1" transform="matrix(1,0,0,1,12,12)"><path stroke-linecap="round" stroke-linejoin="miter" fill-opacity="0" stroke-miterlimit="4" stroke="#060607" stroke-opacity="1" stroke-width="2px" d=" M9.932000160217285,-9.932000160217285 C9.97700023651123,-9.97700023651123 10,-10 10,-10"></path></g></g><g style="display: none;" transform="matrix(25,0,0,25,200,200)" opacity="1"><g opacity="1" transform="matrix(1,0,0,1,12,12)"><path stroke-linecap="round" stroke-linejoin="miter" fill-opacity="0" stroke-miterlimit="4" stroke="#060607" stroke-opacity="1" stroke-width="2px" d=" M-10,10 C-10,10 10,-10 10,-10"></path></g></g></g><g clip-path="url(#__lottie_element_734)" style="display: none;" transform="matrix(1,0,0,1,-200,-200)" opacity="1"><g style="display: block;" transform="matrix(25,0,0,25,200,200)" opacity="1"><g opacity="1" transform="matrix(1,0,0,1,12,12)"><path stroke-linecap="round" stroke-linejoin="miter" fill-opacity="0" stroke-miterlimit="4" stroke="#060607" stroke-opacity="1" stroke-width="2px" d=" M-10,10 C-10,10 10,-10 10,-10"></path></g></g></g></g></g></svg>