<svg xmlns="http://www.w3.org/2000/svg" xmlns:xlink="http://www.w3.org/1999/xlink" viewBox="0 0 24 24" width="24" height="24" preserveAspectRatio="xMidYMid meet" style="width: 100%; height: 100%; transform: translate3d(0px, 0px, 0px); content-visibility: visible;"><defs><clipPath id="__lottie_element_993"><rect width="24" height="24" x="0" y="0"></rect></clipPath><clipPath id="__lottie_element_995"><path d="M0,0 L600,0 L600,600 L0,600z"></path></clipPath><clipPath id="__lottie_element_999"><path d="M0,0 L1000,0 L1000,1000 L0,1000z"></path></clipPath><clipPath id="__lottie_element_1006"><path d="M0,0 L1000,0 L1000,1000 L0,1000z"></path></clipPath><clipPath id="__lottie_element_1016"><path d="M0,0 L600,0 L600,600 L0,600z"></path></clipPath><mask id="__lottie_element_1017"><rect fill="#ffffff" width="600" height="600" transform="matrix(1,0,0,1,0,0)"></rect><path fill="#000000" clip-rule="nonzero" d=" M481.2200012207031,12.795999526977539 C481.2200012207031,12.795999526977539 15.696999549865723,481.75 15.696999549865723,481.75 C15.696999549865723,481.75 -48.2400016784668,549.2319946289062 1.1369999647140503,598.8619995117188 C55,653 119.68000030517578,585.0560302734375 119.68000030517578,585.0560302734375 C119.68000030517578,585.0560302734375 585.2030029296875,116.10199737548828 585.2030029296875,116.10199737548828 C585.2030029296875,116.10199737548828 668,34 616.2150268554688,-15.553999900817871 C564.781005859375,-64.77200317382812 481.2200012207031,12.795999526977539 481.2200012207031,12.795999526977539" fill-opacity="1"></path></mask><clipPath id="__lottie_element_1024"><path d="M0,0 L600,0 L600,600 L0,600z"></path></clipPath><mask id="__lottie_element_1025"><rect fill="#ffffff" width="600" height="600" transform="matrix(1,0,0,1,0,0)"></rect><path fill="#000000" clip-rule="nonzero" d=" M825.219970703125,-287.2040100097656 C825.219970703125,-287.2040100097656 653.697021484375,-112.25 653.697021484375,-112.25 C653.697021484375,-112.25 589.760009765625,-44.768001556396484 639.1370239257812,4.861999988555908 C693,59 757.6799926757812,-8.944000244140625 757.6799926757812,-8.944000244140625 C757.6799926757812,-8.944000244140625 929.2030029296875,-183.8979949951172 929.2030029296875,-183.8979949951172 C929.2030029296875,-183.8979949951172 1012,-266 960.2150268554688,-315.5539855957031 C908.781005859375,-364.7720031738281 825.219970703125,-287.2040100097656 825.219970703125,-287.2040100097656" fill-opacity="1"></path></mask></defs><g clip-path="url(#__lottie_element_993)"><g clip-path="url(#__lottie_element_995)" transform="matrix(0.03999999910593033,0,0,0.03999999910593033,0,0)" opacity="1" style="display: block;"><g clip-path="url(#__lottie_element_1024)" transform="matrix(1,0,0,1,0,0)" opacity="1" style="display: block;"><g mask="url(#__lottie_element_1025)"><g transform="matrix(25,0,0,25,0,0)" opacity="1" style="display: block;"><g opacity="1" transform="matrix(1,0,0,1,9.5,12)"><path fill="#060607" fill-opacity="1" d=" M-5.5,-8 C-5.5,-8 -1.253999948501587,-8 -1.253999948501587,-8 C-1.253999948501587,-8 5.5,-8 5.5,-8 C7.1570000648498535,-8 8.5,-6.6570000648498535 8.5,-5 C8.5,-5 8.5,5 8.5,5 C8.5,6.6570000648498535 7.1570000648498535,8 5.5,8 C5.5,8 0.13199999928474426,8 0.13199999928474426,8 C0.13199999928474426,8 -5.5,8 -5.5,8 C-7.1570000648498535,8 -8.5,6.6570000648498535 -8.5,5 C-8.5,5 -8.5,-5 -8.5,-5 C-8.5,-6.6570000648498535 -7.1570000648498535,-8 -5.5,-8z"></path></g><g opacity="1" transform="matrix(1,0,0,1,20.5,12)"><path fill="#060607" fill-opacity="1" d=" M-2.5,-2.881999969482422 C-2.5,-3.260999917984009 -2.2860000133514404,-3.6070001125335693 -1.9470000267028809,-3.7760000228881836 C-1.9470000267028809,-3.7760000228881836 1.0529999732971191,-5.276000022888184 1.0529999732971191,-5.276000022888184 C1.718000054359436,-5.609000205993652 2.5,-5.125 2.5,-4.381999969482422 C2.5,-4.381999969482422 2.5,4.381999969482422 2.5,4.381999969482422 C2.5,5.125 1.718000054359436,5.609000205993652 1.0529999732971191,5.276000022888184 C1.0529999732971191,5.276000022888184 -1.9470000267028809,3.7760000228881836 -1.9470000267028809,3.7760000228881836 C-2.2860000133514404,3.6070001125335693 -2.5,3.260999917984009 -2.5,2.881999969482422 C-2.5,2.881999969482422 -3.059999942779541,-0.23999999463558197 -3.059999942779541,-0.23999999463558197 C-3.059999942779541,-0.23999999463558197 -2.5,-2.881999969482422 -2.5,-2.881999969482422z"></path></g></g></g></g><g clip-path="url(#__lottie_element_1016)" style="display: none;" transform="matrix(1,0,0,1,0,0)" opacity="1"><g mask="url(#__lottie_element_1017)"><g style="display: block;" transform="matrix(25,0,0,25,0,0)" opacity="1"><g opacity="1" transform="matrix(1,0,0,1,9.5,12)"><path fill="#060607" fill-opacity="1" d=" M-5.5,-8 C-5.5,-8 -1.253999948501587,-8 -1.253999948501587,-8 C-1.253999948501587,-8 5.5,-8 5.5,-8 C7.1570000648498535,-8 8.5,-6.6570000648498535 8.5,-5 C8.5,-5 8.5,5 8.5,5 C8.5,6.6570000648498535 7.1570000648498535,8 5.5,8 C5.5,8 0.13199999928474426,8 0.13199999928474426,8 C0.13199999928474426,8 -5.5,8 -5.5,8 C-7.1570000648498535,8 -8.5,6.6570000648498535 -8.5,5 C-8.5,5 -8.5,-5 -8.5,-5 C-8.5,-6.6570000648498535 -7.1570000648498535,-8 -5.5,-8z"></path></g><g opacity="1" transform="matrix(1,0,0,1,20.5,12)"><path fill="#060607" fill-opacity="1" d=" M-2.5,-2.881999969482422 C-2.5,-3.260999917984009 -2.2860000133514404,-3.6070001125335693 -1.9470000267028809,-3.7760000228881836 C-1.9470000267028809,-3.7760000228881836 1.0529999732971191,-5.276000022888184 1.0529999732971191,-5.276000022888184 C1.718000054359436,-5.609000205993652 2.5,-5.125 2.5,-4.381999969482422 C2.5,-4.381999969482422 2.5,4.381999969482422 2.5,4.381999969482422 C2.5,5.125 1.718000054359436,5.609000205993652 1.0529999732971191,5.276000022888184 C1.0529999732971191,5.276000022888184 -1.9470000267028809,3.7760000228881836 -1.9470000267028809,3.7760000228881836 C-2.2860000133514404,3.6070001125335693 -2.5,3.260999917984009 -2.5,2.881999969482422 C-2.5,2.881999969482422 -3.177558660507202,-0.00244128773920238 -3.177558660507202,-0.00244128773920238 C-3.177558660507202,-0.00244128773920238 -2.5,-2.881999969482422 -2.5,-2.881999969482422z"></path></g></g></g></g><g clip-path="url(#__lottie_element_1006)" transform="matrix(1,0,0,1,-200,-200)" opacity="1" style="display: none;"><g transform="matrix(25,0,0,25,200,200)" opacity="1" style="display: block;"><g opacity="1" transform="matrix(1,0,0,1,12,12)"><path stroke-linecap="round" stroke-linejoin="miter" fill-opacity="0" stroke-miterlimit="4" stroke="#060607" stroke-opacity="1" stroke-width="2px" d=" M4.4120001792907715,-4.4120001792907715 C7.573999881744385,-7.573999881744385 10,-10 10,-10"></path></g></g><g style="display: none;" transform="matrix(25,0,0,25,200,200)" opacity="1"><g opacity="1" transform="matrix(1,0,0,1,12,12)"><path stroke-linecap="round" stroke-linejoin="miter" fill-opacity="0" stroke-miterlimit="4" stroke="#060607" stroke-opacity="1" stroke-width="2px" d=" M-10,10 C-10,10 10,-10 10,-10"></path></g></g></g><g clip-path="url(#__lottie_element_999)" style="display: none;" transform="matrix(1,0,0,1,-200,-200)" opacity="1"><g style="display: block;" transform="matrix(25,0,0,25,200,200)" opacity="1"><g opacity="1" transform="matrix(1,0,0,1,12,12)"><path stroke-linecap="round" stroke-linejoin="miter" fill-opacity="0" stroke-miterlimit="4" stroke="#060607" stroke-opacity="1" stroke-width="2px" d=" M-10,10 C-10,10 10,-10 10,-10"></path></g></g></g></g></g></svg>